<mxfile host="app.diagrams.net" modified="2024-05-23T20:25:21.473Z" agent="Mozilla/5.0 (Macintosh; Intel Mac OS X 10_15_7) AppleWebKit/537.36 (KHTML, like Gecko) Chrome/123.0.0.0 Safari/537.36" etag="RGFQ3Zvg12oZfKSDw_p0" version="24.4.6" type="google">
  <diagram name="Page-1" id="GPZlfw00uh7eoeQjfzlV">
    <mxGraphModel grid="0" page="0" gridSize="10" guides="1" tooltips="1" connect="1" arrows="1" fold="1" pageScale="1" pageWidth="850" pageHeight="1100" math="0" shadow="0">
      <root>
        <mxCell id="0" />
        <mxCell id="1" parent="0" />
        <mxCell id="XDnDEAEB_7gjoDfgZAFV-5" value="" style="edgeStyle=none;curved=1;rounded=0;orthogonalLoop=1;jettySize=auto;html=1;fontSize=12;startSize=8;endSize=8;" edge="1" parent="1" source="XDnDEAEB_7gjoDfgZAFV-1">
          <mxGeometry relative="1" as="geometry">
            <mxPoint x="32" y="138" as="targetPoint" />
          </mxGeometry>
        </mxCell>
        <mxCell id="XDnDEAEB_7gjoDfgZAFV-1" value="NYC Open&lt;div&gt;Data&lt;/div&gt;" style="ellipse;whiteSpace=wrap;html=1;aspect=fixed;" vertex="1" parent="1">
          <mxGeometry x="-94" y="98" width="80" height="80" as="geometry" />
        </mxCell>
        <mxCell id="XDnDEAEB_7gjoDfgZAFV-7" style="edgeStyle=none;curved=1;rounded=0;orthogonalLoop=1;jettySize=auto;html=1;entryX=0;entryY=0.5;entryDx=0;entryDy=0;fontSize=12;startSize=8;endSize=8;" edge="1" parent="1" source="XDnDEAEB_7gjoDfgZAFV-4" target="XDnDEAEB_7gjoDfgZAFV-6">
          <mxGeometry relative="1" as="geometry" />
        </mxCell>
        <mxCell id="XDnDEAEB_7gjoDfgZAFV-10" style="edgeStyle=none;curved=1;rounded=0;orthogonalLoop=1;jettySize=auto;html=1;fontSize=12;startSize=8;endSize=8;" edge="1" parent="1" source="XDnDEAEB_7gjoDfgZAFV-4">
          <mxGeometry relative="1" as="geometry">
            <mxPoint x="151.5" y="138" as="targetPoint" />
          </mxGeometry>
        </mxCell>
        <mxCell id="XDnDEAEB_7gjoDfgZAFV-4" value="Google Cloud&amp;nbsp;&lt;div&gt;Storage&lt;/div&gt;" style="rhombus;whiteSpace=wrap;html=1;" vertex="1" parent="1">
          <mxGeometry x="31" y="89" width="108" height="98" as="geometry" />
        </mxCell>
        <mxCell id="XDnDEAEB_7gjoDfgZAFV-9" style="edgeStyle=none;curved=1;rounded=0;orthogonalLoop=1;jettySize=auto;html=1;entryX=0;entryY=0.5;entryDx=0;entryDy=0;fontSize=12;startSize=8;endSize=8;" edge="1" parent="1" source="XDnDEAEB_7gjoDfgZAFV-6" target="XDnDEAEB_7gjoDfgZAFV-8">
          <mxGeometry relative="1" as="geometry" />
        </mxCell>
        <mxCell id="XDnDEAEB_7gjoDfgZAFV-6" value="dbt" style="ellipse;whiteSpace=wrap;html=1;aspect=fixed;" vertex="1" parent="1">
          <mxGeometry x="186" y="98" width="80" height="80" as="geometry" />
        </mxCell>
        <mxCell id="XDnDEAEB_7gjoDfgZAFV-12" style="edgeStyle=none;curved=1;rounded=0;orthogonalLoop=1;jettySize=auto;html=1;exitX=1;exitY=0.5;exitDx=0;exitDy=0;entryX=0;entryY=0.5;entryDx=0;entryDy=0;fontSize=12;startSize=8;endSize=8;" edge="1" parent="1" source="XDnDEAEB_7gjoDfgZAFV-8" target="XDnDEAEB_7gjoDfgZAFV-11">
          <mxGeometry relative="1" as="geometry" />
        </mxCell>
        <mxCell id="XDnDEAEB_7gjoDfgZAFV-8" value="BigQuery" style="rhombus;whiteSpace=wrap;html=1;" vertex="1" parent="1">
          <mxGeometry x="313" y="98" width="80" height="80" as="geometry" />
        </mxCell>
        <mxCell id="XDnDEAEB_7gjoDfgZAFV-11" value="Looker&amp;nbsp;&lt;div&gt;Studio&lt;/div&gt;" style="whiteSpace=wrap;html=1;aspect=fixed;" vertex="1" parent="1">
          <mxGeometry x="435" y="98" width="80" height="80" as="geometry" />
        </mxCell>
        <mxCell id="XDnDEAEB_7gjoDfgZAFV-13" value="" style="swimlane;startSize=0;" vertex="1" parent="1">
          <mxGeometry x="-94" y="24" width="260" height="290" as="geometry" />
        </mxCell>
        <mxCell id="XDnDEAEB_7gjoDfgZAFV-14" value="Mage/&lt;span style=&quot;background-color: initial;&quot;&gt;Docker&lt;/span&gt;" style="text;html=1;align=center;verticalAlign=middle;resizable=0;points=[];autosize=1;strokeColor=none;fillColor=none;fontSize=16;" vertex="1" parent="XDnDEAEB_7gjoDfgZAFV-13">
          <mxGeometry x="67" y="16" width="113" height="31" as="geometry" />
        </mxCell>
        <mxCell id="XDnDEAEB_7gjoDfgZAFV-18" style="edgeStyle=none;curved=1;rounded=0;orthogonalLoop=1;jettySize=auto;html=1;fontSize=12;startSize=8;endSize=8;" edge="1" parent="1" source="XDnDEAEB_7gjoDfgZAFV-17" target="XDnDEAEB_7gjoDfgZAFV-4">
          <mxGeometry relative="1" as="geometry" />
        </mxCell>
        <mxCell id="XDnDEAEB_7gjoDfgZAFV-19" style="edgeStyle=none;curved=1;rounded=0;orthogonalLoop=1;jettySize=auto;html=1;entryX=0;entryY=1;entryDx=0;entryDy=0;fontSize=12;startSize=8;endSize=8;" edge="1" parent="1" source="XDnDEAEB_7gjoDfgZAFV-17" target="XDnDEAEB_7gjoDfgZAFV-8">
          <mxGeometry relative="1" as="geometry" />
        </mxCell>
        <mxCell id="XDnDEAEB_7gjoDfgZAFV-17" value="Terraform" style="ellipse;whiteSpace=wrap;html=1;aspect=fixed;" vertex="1" parent="1">
          <mxGeometry x="186" y="238" width="80" height="80" as="geometry" />
        </mxCell>
      </root>
    </mxGraphModel>
  </diagram>
</mxfile>
